<?xml version="1.0" encoding="UTF-8" standalone="no" ?>
<!DOCTYPE svg PUBLIC "-//W3C//DTD SVG 1.1//EN" "http://www.w3.org/Graphics/SVG/1.1/DTD/svg11.dtd">
<svg xmlns="http://www.w3.org/2000/svg" xmlns:xlink="http://www.w3.org/1999/xlink" version="1.1" width="1080" height="1080" viewBox="0 0 1080 1080" xml:space="preserve">
<desc>Created with Fabric.js 5.2.4</desc>
<defs>
</defs>
<g transform="matrix(1 0 0 1 540 540)" id="d5817e80-0865-4a10-b6f1-7e1521673744"  >
<rect style="stroke: none; stroke-width: 1; stroke-dasharray: none; stroke-linecap: butt; stroke-dashoffset: 0; stroke-linejoin: miter; stroke-miterlimit: 4; fill: rgb(255,255,255); fill-rule: nonzero; opacity: 1; visibility: hidden;" vector-effect="non-scaling-stroke"  x="-540" y="-540" rx="0" ry="0" width="1080" height="1080" />
</g>
<g transform="matrix(1 0 0 1 540 540)" id="4de2046c-83c3-4a65-bbb9-c9a785facecc"  >
</g>
<g transform="matrix(1 0 0 1 540 540)"  >
<g style="opacity: 1;" vector-effect="non-scaling-stroke"   >
		<g transform="matrix(1.63 0 0 1.63 167.35 -294.64)"  >
<path style="stroke: none; stroke-width: 1; stroke-dasharray: none; stroke-linecap: butt; stroke-dashoffset: 0; stroke-linejoin: miter; stroke-miterlimit: 4; fill: rgb(255,255,255); fill-rule: nonzero; opacity: 1;" vector-effect="non-scaling-stroke"  transform=" translate(-347.5, -64.53)" d="M 359.171 127.364 C 361.432 129.625 365.097 129.625 367.35699999999997 127.364 L 410.33599999999996 84.385 C 412.597 82.12400000000001 412.597 78.459 410.33599999999996 76.19800000000001 L 335.833 1.695 C 333.57300000000004 -0.5649999999999997 329.908 -0.5649999999999997 327.64700000000005 1.695 L 284.66800000000006 44.674 C 282.4080000000001 46.935 282.4080000000001 50.6 284.66800000000006 52.861 L 359.171 127.364 z" stroke-linecap="round" />
</g>
		<g transform="matrix(1.63 0 0 1.63 -179.48 52.19)"  >
<path style="stroke: none; stroke-width: 1; stroke-dasharray: none; stroke-linecap: butt; stroke-dashoffset: 0; stroke-linejoin: miter; stroke-miterlimit: 4; fill: rgb(255,255,255); fill-rule: nonzero; opacity: 1;" vector-effect="non-scaling-stroke"  transform=" translate(-135.07, -276.96)" d="M 154.923 339.799 L 197.902 296.82 C 200.16299999999998 294.55899999999997 200.16199999999998 290.895 197.902 288.634 L 123.39799999999998 214.13 C 121.13799999999998 211.87 117.47299999999998 211.869 115.21199999999999 214.129 L 72.233 257.11 C 69.97200000000001 259.37 69.97200000000001 263.035 72.232 265.295 L 146.735 339.798 C 148.997 342.06 152.662 342.06 154.923 339.799 z" stroke-linecap="round" />
</g>
		<g transform="matrix(1.63 0 0 1.63 -15.13 -121.25)"  >
<path style="stroke: none; stroke-width: 1; stroke-dasharray: none; stroke-linecap: butt; stroke-dashoffset: 0; stroke-linejoin: miter; stroke-miterlimit: 4; fill: rgb(255,255,255); fill-rule: nonzero; opacity: 1;" vector-effect="non-scaling-stroke"  transform=" translate(-235.73, -170.73)" d="M 219.299 281.745 C 221.559 284.00600000000003 225.225 284.00600000000003 227.48600000000002 281.746 L 310.37600000000003 198.85699999999997 C 310.02000000000004 196.28699999999998 309.821 193.66699999999997 309.821 190.99999999999997 C 309.821 168.12199999999996 323.377 148.35999999999996 342.872 139.29399999999998 L 263.298 59.72 C 261.037 57.458999999999996 257.373 57.458999999999996 255.112 59.72 L 130.286 184.547 C 128.025 186.807 128.024 190.472 130.284 192.732 L 219.299 281.745 z" stroke-linecap="round" />
</g>
		<g transform="matrix(1.63 0 0 1.63 198.89 -88.16)"  >
<path style="stroke: none; stroke-width: 1; stroke-dasharray: none; stroke-linecap: butt; stroke-dashoffset: 0; stroke-linejoin: miter; stroke-miterlimit: 4; fill: rgb(255,255,255); fill-rule: nonzero; opacity: 1;" vector-effect="non-scaling-stroke"  transform=" translate(-366.82, -191)" d="M 403.82 191 C 403.82 170.565 387.255 154 366.82 153.999 C 346.38599999999997 154 329.82 170.565 329.82 191 C 329.82 211.434 346.387 227.999 366.819 227.999 C 366.82 227.999 366.819 227.999 366.82 227.999 C 387.255 228 403.82 211.435 403.82 191 z" stroke-linecap="round" />
</g>
		<g transform="matrix(1.63 0 0 1.63 5.13 190.29)"  >
<path style="stroke: none; stroke-width: 1; stroke-dasharray: none; stroke-linecap: butt; stroke-dashoffset: 0; stroke-linejoin: miter; stroke-miterlimit: 4; fill: rgb(255,255,255); fill-rule: nonzero; opacity: 1;" vector-effect="non-scaling-stroke"  transform=" translate(-248.14, -361.55)" d="M 367.987 247.971 C 375.49100000000004 263.012 379.46200000000005 279.699 379.46200000000005 296.999 C 379.46200000000005 326.38100000000003 368.02000000000004 354.005 347.24300000000005 374.781 C 317.93700000000007 404.087 276.07500000000005 413.362 238.81500000000005 402.619 C 242.96800000000005 400.51500000000004 245.82000000000005 396.21900000000005 245.82000000000005 391.245 L 245.82000000000005 373.16200000000003 L 76.82000000000005 373.16200000000003 L 76.82000000000005 391.245 C 76.82000000000005 398.29 82.53200000000005 403.999 89.57600000000005 403.999 L 164.35300000000007 403.999 C 176.62600000000006 416.05800000000005 190.47200000000007 425.57500000000005 205.23200000000006 432.552 C 167.77500000000006 441.776 141.36500000000007 464.02000000000004 141.36500000000007 489.999 L 346.27600000000007 489.999 C 346.27600000000007 470.55600000000004 331.4820000000001 453.206 308.3380000000001 441.83900000000006 C 332.9680000000001 435.27200000000005 356.2420000000001 422.3500000000001 375.52700000000004 403.06600000000003 C 403.85900000000004 374.73400000000004 419.46200000000005 337.06600000000003 419.46200000000005 297 C 419.46200000000005 274.537 414.54200000000003 252.835 405.23800000000006 233.103 C 395 242.464 381.905 247.693 367.987 247.971 z" stroke-linecap="round" />
</g>
</g>
</g>
</svg>